<?xml version="1.0" encoding="UTF-8"?><svg id="Layer_2" xmlns="http://www.w3.org/2000/svg" viewBox="0 0 75 75"><defs><style>.cls-1{fill:none;}</style></defs><g id="Layer_1-2"><path d="m30.36,54.02c-1.05-1.05-1.58-2.57-1.58-4.54v-9.79l2.81-1.89v-.1l-2.81-1.89v-3.67c0-2.01.53-3.53,1.58-4.56,1.05-1.04,2.57-1.56,4.54-1.56h5.3c2.01,0,3.53.52,4.56,1.56s1.56,2.56,1.56,4.56v11.22h-7.35v-10.3c0-.95-.48-1.43-1.43-1.43s-1.43.48-1.43,1.43v4.69h7.39v5.61h-7.39v5.2c0,.95.48,1.43,1.43,1.43s1.43-.48,1.43-1.43v-2.65h7.35v3.57c0,1.97-.52,3.49-1.56,4.54-1.04,1.05-2.56,1.58-4.56,1.58h-5.3c-1.97,0-3.49-.53-4.54-1.58Z"/><rect class="cls-1" width="75" height="75"/></g></svg>