<?xml version="1.0" encoding="UTF-8"?><svg id="Layer_2" xmlns="http://www.w3.org/2000/svg" viewBox="0 0 75 75"><defs><style>.cls-1{fill:none;}</style></defs><g id="Layer_1-2"><path d="m30.1,53c-1.05-1.05-1.58-2.57-1.58-4.54v-8.77l2.81-1.89v-.1l-2.81-1.89v-3.67c0-2.01.53-3.53,1.58-4.56,1.05-1.04,2.57-1.56,4.54-1.56h7.75v5.61h-5.1c-.95,0-1.43.48-1.43,1.43v2.75l-2.8,1.89v.1l2.8,1.89v7.34c0,.95.48,1.43,1.43,1.43h2.35v1.58h-1.02l-2.7,4.54h-1.27c-1.97,0-3.49-.53-4.54-1.58Zm15.96-26.98v9.79l-2.81,1.89v.1l2.81,1.89v16.93c0,2.01-.52,3.53-1.56,4.57-1.04,1.04-2.56,1.55-4.56,1.55h-9.18v-6.12h6.53c.95,0,1.43-.48,1.43-1.43v-15.5l2.81-1.89v-.1l-2.81-1.89v-9.79h7.34Z"/><rect class="cls-1" width="75" height="75"/></g></svg>