<?xml version="1.0" encoding="UTF-8"?><svg id="Layer_2" xmlns="http://www.w3.org/2000/svg" viewBox="0 0 75 75"><defs><style>.cls-1{fill:none;}</style></defs><g id="Layer_1-2"><path d="m28.93,39.69l2.8-1.89v-.1l-2.8-1.89v-9.79h7.34v9.79l-2.8,1.89v.1l2.8,1.89v23.05h-7.34v-23.05Zm15.99-12.11c1.04,1.04,1.56,2.56,1.56,4.56v3.67l-2.8,1.89v.1l2.8,1.89v9.79c0,1.97-.52,3.49-1.56,4.54-1.04,1.05-2.56,1.58-4.56,1.58h-7.75v-5.61h5.1c.95,0,1.43-.48,1.43-1.43v-8.87l2.8-1.89v-.1l-2.8-1.89v-2.24c0-.95-.48-1.43-1.43-1.43h-2.35v-1.58h.97l2.75-4.54h1.27c2.01,0,3.53.52,4.56,1.56Z"/><rect class="cls-1" width="75" height="75"/></g></svg>