<?xml version="1.0" encoding="UTF-8"?><svg id="Layer_2" xmlns="http://www.w3.org/2000/svg" viewBox="0 0 75 75"><defs><style>.cls-1{fill:none;}</style></defs><g id="Layer_1-2"><path d="m30,39.69l2.91-1.89v-.1l-3.47-1.89-1.33-9.79h7.45l.87,9.28.76,11.07h.61l.82-11.07.82-9.28h7.45l-1.33,9.79-3.47,1.89v.1l2.91,1.89-1.99,15.91h-11.02l-1.99-15.91Zm-.05,17.44h4.18c.85,0,1.33-.48,1.43-1.43l.76-6.12h7.34l-.77,7.04c-.2,2.04-.78,3.57-1.73,4.59-.95,1.02-2.41,1.53-4.39,1.53h-6.83v-5.61Z"/><rect class="cls-1" width="75" height="75"/></g></svg>