<?xml version="1.0" encoding="UTF-8"?><svg id="Layer_2" xmlns="http://www.w3.org/2000/svg" viewBox="0 0 75 75"><defs><style>.cls-1{fill:none;}</style></defs><g id="Layer_1-2"><path d="m28.73,39.69l2.8-1.89v-.1l-2.8-1.89v-9.79c0-2.01.53-3.53,1.58-4.56,1.05-1.04,2.57-1.56,4.54-1.56h5.3c2,0,3.53.52,4.56,1.56,1.04,1.04,1.55,2.56,1.55,4.56v9.79l-2.8,1.89v.1l2.8,1.89v15.91h-7.34v-28.15c0-.95-.48-1.43-1.43-1.43s-1.43.48-1.43,1.43v28.15h-7.34v-15.91Zm3.93-5h10v6.12h-10v-6.12Z"/><rect class="cls-1" width="75" height="75"/></g></svg>