<?xml version="1.0" encoding="UTF-8"?><svg id="Layer_2" xmlns="http://www.w3.org/2000/svg" viewBox="0 0 75 75"><defs><style>.cls-1{fill:none;}</style></defs><g id="Layer_1-2"><path d="m30.41,54.02c-1.05-1.05-1.58-2.57-1.58-4.54v-9.79l2.81-1.89v-.1l-2.81-1.89v-9.79c0-2.01.53-3.53,1.58-4.56,1.05-1.04,2.57-1.56,4.54-1.56h5.3c2.01,0,3.53.52,4.56,1.56,1.04,1.04,1.56,2.56,1.56,4.56v4.08l-3.32,3.57h-.66l-3.37-3.57v-2.65c0-.95-.48-1.43-1.43-1.43s-1.43.48-1.43,1.43v8.36l-2.8,1.89v.1l2.8,1.89v8.36c0,.95.48,1.43,1.43,1.43s1.43-.48,1.43-1.43v-10.3h7.35v17.85h-4.79l-1.89-4.59h-.1l-1.89,4.59h-2.75c-1.97,0-3.49-.53-4.54-1.58Zm7.19-16.27h3.83v5.61h-3.83v-5.61Z"/><rect class="cls-1" width="75" height="75"/></g></svg>