<?xml version="1.0" encoding="UTF-8"?><svg id="Layer_2" xmlns="http://www.w3.org/2000/svg" viewBox="0 0 75 75"><defs><style>.cls-1{fill:none;}</style></defs><g id="Layer_1-2"><path d="m29.24,41.73c.31-.75.78-1.48,1.43-2.19l7.6-8.06c.48-.51.71-1.1.71-1.79v-2.24c0-.95-.48-1.43-1.43-1.43s-1.43.48-1.43,1.43v4.18h-7.34v-5.61c0-2.01.53-3.53,1.58-4.56,1.05-1.04,2.57-1.55,4.54-1.55h5.3c2.01,0,3.53.52,4.56,1.55,1.04,1.04,1.56,2.56,1.56,4.56v4.85c0,.99-.15,1.85-.46,2.6-.31.75-.78,1.48-1.43,2.19l-7.6,8.06c-.48.51-.71,1.11-.71,1.79v6.12l-1.22-2.14h4.08v-4.9l3.37-3.57h.61l3.37,3.57v11.02h-17.54v-11.27c0-.98.15-1.85.46-2.6Z"/><rect class="cls-1" width="75" height="75"/></g></svg>