<?xml version="1.0" encoding="UTF-8"?><svg id="Layer_2" xmlns="http://www.w3.org/2000/svg" viewBox="0 0 75 75"><defs><style>.cls-1{fill:none;}</style></defs><g id="Layer_1-2"><path d="m44.56,54.02c-1.04,1.05-2.56,1.58-4.56,1.58h-5.3c-1.97,0-3.49-.53-4.54-1.58-1.05-1.05-1.58-2.57-1.58-4.54v-5.61h7.34v4.18c0,.95.48,1.43,1.43,1.43s1.43-.48,1.43-1.43v-5.81c0-.95-.48-1.43-1.43-1.43h-3.37v-6.12h3.37c.95,0,1.43-.48,1.43-1.43v-5.81c0-.95-.48-1.43-1.43-1.43s-1.43.48-1.43,1.43v4.18h-7.34v-5.61c0-2.01.53-3.53,1.58-4.56,1.05-1.04,2.57-1.56,4.54-1.56h5.3c2.01,0,3.53.52,4.56,1.56,1.04,1.04,1.56,2.56,1.56,4.56v9.79l-2.8,1.89v.1l2.8,1.89v9.79c0,1.97-.52,3.49-1.56,4.54Zm-14.46-16.01v-.51l2.35-2.8h2.35l2.35,2.8v.51l-2.35,2.8h-2.35l-2.35-2.8Z"/><rect class="cls-1" width="75" height="75"/></g></svg>