<?xml version="1.0" encoding="UTF-8"?><svg id="Layer_2" xmlns="http://www.w3.org/2000/svg" viewBox="0 0 75 75"><defs><style>.cls-1{fill:none;}</style></defs><g id="Layer_1-2"><path d="m28.83,19.9h17.54v10.2l-3.37,3.57h-.61l-3.37-3.57v-4.08h-5.66l2.29-2.29v13.26l-2.29-2.29h6.88c2.01,0,3.53.52,4.56,1.56s1.56,2.56,1.56,4.56v8.67c0,1.97-.52,3.49-1.56,4.54-1.04,1.05-2.56,1.58-4.56,1.58h-5.3c-1.97,0-3.49-.53-4.54-1.58-1.05-1.05-1.58-2.57-1.58-4.54v-6.53h7.34v5.1c0,.95.48,1.43,1.43,1.43s1.43-.48,1.43-1.43v-5.81c0-.95-.48-1.43-1.43-1.43h-8.77v-1.12l2.8-1.89v-.1l-2.8-1.89v-15.91Z"/><rect class="cls-1" width="75" height="75"/></g></svg>