<?xml version="1.0" encoding="UTF-8"?><svg id="Layer_2" xmlns="http://www.w3.org/2000/svg" viewBox="0 0 75 75"><defs><style>.cls-1{fill:none;}</style></defs><g id="Layer_1-2"><path d="m38.95,35.33c.32-.32.48-.77.48-1.35v-6.12c0-.58-.16-1.03-.48-1.35-.32-.32-.77-.48-1.35-.48h-1.02v9.79l-2.8,1.89v.1l2.8,1.89v15.91h-7.34v-15.91l2.8-1.89v-.1l-2.8-1.89v-15.91h11.42c2.01,0,3.53.52,4.56,1.56,1.04,1.04,1.55,2.56,1.55,4.56v9.79c0,1.97-.52,3.49-1.55,4.54-1.04,1.05-2.56,1.58-4.56,1.58h-7.65v-6.12h4.59c.58,0,1.03-.16,1.35-.48Z"/><rect class="cls-1" width="75" height="75"/></g></svg>