<?xml version="1.0" encoding="UTF-8"?><svg id="Layer_2" xmlns="http://www.w3.org/2000/svg" viewBox="0 0 75 75"><defs><style>.cls-1{fill:none;}</style></defs><g id="Layer_1-2"><path d="m35.97,49.94c1.29-3.37,2.04-6.78,2.24-10.25l2.3-1.89v-.1l-2.3-1.89c-.2-3.47-.95-6.88-2.24-10.25-1.29-3.37-3.01-6.78-5.15-10.25h6.58c2.11,3.33,3.75,6.65,4.92,9.95,1.17,3.3,1.84,6.82,2.01,10.56l-2.29,1.89v.1l2.29,1.89c-.17,3.74-.84,7.26-2.01,10.56-1.17,3.3-2.81,6.61-4.92,9.95h-6.58c2.14-3.47,3.86-6.88,5.15-10.25Z"/><rect class="cls-1" width="75" height="75"/></g></svg>