<?xml version="1.0" encoding="UTF-8"?><svg id="Layer_2" xmlns="http://www.w3.org/2000/svg" viewBox="0 0 75 75"><defs><style>.cls-1{fill:none;}</style></defs><g id="Layer_1-2"><path d="m39.95,54.3c.44.53,1.16.79,2.14.79h3.32v5.1h-6.12c-1.97,0-3.49-.52-4.54-1.56-1.05-1.04-1.58-2.56-1.58-4.56v-11.78c0-.75-.14-1.27-.41-1.56-.27-.29-.71-.43-1.33-.43h-1.84v-5.1h1.84c.61,0,1.05-.14,1.33-.43.27-.29.41-.81.41-1.55v-11.78c0-2.01.53-3.53,1.58-4.56,1.05-1.04,2.57-1.56,4.54-1.56h6.12v5.1h-3.32c-.99,0-1.7.26-2.14.79-.44.53-.66,1.39-.66,2.58v12.04l-2.8,1.89v.1l2.8,1.89v12.04c0,1.19.22,2.05.66,2.58Z"/><rect class="cls-1" width="75" height="75"/></g></svg>