<?xml version="1.0" encoding="UTF-8"?><svg id="Layer_2" xmlns="http://www.w3.org/2000/svg" viewBox="0 0 75 75"><defs><style>.cls-1{fill:none;}</style></defs><g id="Layer_1-2"><path d="m35.71,39.69l2.8-1.89v-.1l-2.8-1.89v-12.04c0-1.19-.22-2.05-.66-2.58-.44-.53-1.16-.79-2.14-.79h-3.31v-5.1h6.12c2.01,0,3.53.52,4.56,1.56s1.56,2.56,1.56,4.56v11.78c0,.75.14,1.27.41,1.55.27.29.71.43,1.33.43h1.84v5.1h-1.84c-.61,0-1.05.14-1.33.43-.27.29-.41.81-.41,1.56v11.78c0,2.01-.52,3.53-1.56,4.56s-2.56,1.56-4.56,1.56h-6.12v-5.1h3.31c.99,0,1.7-.26,2.14-.79.44-.53.66-1.38.66-2.58v-12.04Z"/><rect class="cls-1" width="75" height="75"/></g></svg>