<?xml version="1.0" encoding="UTF-8"?><svg id="Layer_2" xmlns="http://www.w3.org/2000/svg" viewBox="0 0 75 75"><defs><style>.cls-1{fill:none;}</style></defs><g id="Layer_1-2"><path d="m25.51,58.64c-1.05-1.04-1.58-2.56-1.58-4.56v-14.38l1.28-1.89v-.1l-1.28-1.89v-14.38c0-2.01.53-3.53,1.58-4.56s2.57-1.56,4.54-1.56h14.89c2,0,3.53.52,4.56,1.56,1.04,1.04,1.55,2.56,1.55,4.56v14.38l-1.27,1.89v.1l1.27,1.89v13.36h-3.57v-13.36l1.27-1.89v-.1l-1.27-1.89v-14.18c0-.99-.26-1.74-.79-2.27s-1.28-.79-2.27-.79h-13.87c-.99,0-1.74.26-2.27.79-.53.53-.79,1.28-.79,2.27v14.18l-1.28,1.89v.1l1.28,1.89v14.18c0,.99.26,1.74.79,2.27.53.53,1.28.79,2.27.79h20.5v3.26h-21.01c-1.97,0-3.49-.52-4.54-1.56Zm5.97-6.94c-.88-.9-1.33-2.15-1.33-3.75v-8.26l2.29-1.89v-.1l-2.29-1.89v-8.26c0-1.6.44-2.85,1.33-3.75.88-.9,1.97-1.35,3.26-1.35h2.75l1.89,3.06h.1l1.89-3.06h3.26v30.6h-3.26l-1.89-3.06h-.1l-1.89,3.06h-2.75c-1.29,0-2.38-.45-3.26-1.35Zm7.34-4.67v-18.56c0-.95-.48-1.43-1.43-1.43s-1.43.48-1.43,1.43v7.34l-2.29,1.89v.1l2.29,1.89v7.34c0,.95.48,1.43,1.43,1.43s1.43-.48,1.43-1.43Zm4.59,2.6h7.04v3.42h-7.04v-3.42Z"/><rect class="cls-1" width="75" height="75"/></g></svg>