<?xml version="1.0" encoding="UTF-8"?><svg id="Layer_2" xmlns="http://www.w3.org/2000/svg" viewBox="0 0 75 75"><defs><style>.cls-1{fill:none;}</style></defs><g id="Layer_1-2"><path d="m35.18,41.27c.12-.41.35-1.02.69-1.84l2.6-5.92c.31-.68.46-1.61.46-2.8v-3.26c0-.95-.48-1.43-1.43-1.43s-1.43.48-1.43,1.43v3.16l-3.37,3.57h-.61l-3.37-3.57v-4.59c0-2.01.53-3.53,1.58-4.56,1.05-1.04,2.57-1.56,4.54-1.56h5.3c2.01,0,3.53.52,4.56,1.56s1.56,2.56,1.56,4.56v3.83c0,.88-.15,1.74-.43,2.58-.29.83-.71,1.74-1.25,2.73l-3.52,6.22c-.44.78-.71,1.3-.82,1.55-.1.25-.15.6-.15,1.05v1.43h-5.1v-2.6c0-.61.06-1.12.18-1.53Zm-1.86,10.96v-.61l1.79-3.37h4.9l1.79,3.37v.61l-1.79,3.37h-4.9l-1.79-3.37Z"/><rect class="cls-1" width="75" height="75"/></g></svg>