<?xml version="1.0" encoding="UTF-8"?><svg id="Layer_2" xmlns="http://www.w3.org/2000/svg" viewBox="0 0 75 75"><defs><style>.cls-1{fill:none;}</style></defs><g id="Layer_1-2"><path d="m31.38,27.76l-1.38-.46,1.63-5.05,1.38.46,4.59,3.93-.2.61-6.02.51Zm5,5.25l-.87,1.17-4.28-3.11.87-1.17,5.15-3.16.51.41-1.38,5.87Zm-1.53-11.63v-1.48h5.3v1.48l-2.35,5.56h-.61l-2.35-5.56Zm8.06,8.52l.87,1.17-4.28,3.11-.87-1.17-1.38-5.87.51-.41,5.15,3.16Zm-.92-7.19l1.38-.46,1.63,5.05-1.38.46-6.02-.51-.2-.61,4.59-3.93Z"/><rect class="cls-1" width="75" height="75"/></g></svg>