<?xml version="1.0" encoding="UTF-8"?><svg id="Layer_2" xmlns="http://www.w3.org/2000/svg" viewBox="0 0 75 75"><defs><style>.cls-1{fill:none;}</style></defs><g id="Layer_1-2"><path d="m30.31,54.02c-1.05-1.05-1.58-2.57-1.58-4.54v-6.12h7.34v4.69c0,.95.48,1.43,1.43,1.43s1.43-.48,1.43-1.43v-2.55c0-.68-.24-1.28-.71-1.79l-7.6-8.06c-.65-.71-1.12-1.44-1.43-2.19-.31-.75-.46-1.61-.46-2.6v-4.84c0-2.01.53-3.53,1.58-4.56,1.05-1.04,2.57-1.56,4.54-1.56h5.3c2.01,0,3.53.52,4.56,1.56,1.04,1.04,1.56,2.56,1.56,4.56v4.59l-3.37,3.57h-.61l-3.37-3.57v-3.16c0-.95-.48-1.43-1.43-1.43s-1.43.48-1.43,1.43v2.24c0,.68.24,1.28.71,1.79l7.6,8.06c.65.71,1.12,1.45,1.43,2.19.31.75.46,1.62.46,2.6v5.15c0,1.97-.52,3.49-1.56,4.54-1.04,1.05-2.56,1.58-4.56,1.58h-5.3c-1.97,0-3.48-.53-4.54-1.58Z"/><rect class="cls-1" width="75" height="75"/></g></svg>