<?xml version="1.0" encoding="UTF-8"?><svg id="Layer_2" xmlns="http://www.w3.org/2000/svg" viewBox="0 0 75 75"><defs><style>.cls-1{fill:none;}</style></defs><g id="Layer_1-2"><path d="m30.31,54.02c-1.05-1.05-1.58-2.57-1.58-4.54v-9.79l2.8-1.89v-.1l-2.8-1.89v-15.91h7.34v15.91l-2.8,1.89v.1l2.8,1.89v8.36c0,.95.48,1.43,1.43,1.43s1.43-.48,1.43-1.43v-8.36l2.8-1.89v-.1l-2.8-1.89v-15.91h7.34v15.91l-2.8,1.89v.1l2.8,1.89v9.79c0,1.97-.52,3.49-1.55,4.54-1.04,1.05-2.56,1.58-4.56,1.58h-5.3c-1.97,0-3.49-.53-4.54-1.58Z"/><rect class="cls-1" width="75" height="75"/></g></svg>